<svg width="24" height="24" viewBox="0 0 24 24" fill="none" xmlns="http://www.w3.org/2000/svg">
<path fill-rule="evenodd" clip-rule="evenodd" d="M13.4846 12.0004L20.0923 5.39272C20.5028 4.98217 20.5028 4.31856 20.0923 3.90801C19.6817 3.49746 19.0181 3.49746 18.6076 3.90801L11.9999 10.5157L5.39223 3.90801C4.98168 3.49746 4.31808 3.49746 3.90752 3.90801C3.49697 4.31856 3.49697 4.98217 3.90752 5.39272L10.5152 12.0004L3.90752 18.6081C3.49697 19.0186 3.49697 19.6822 3.90752 20.0928C4.11227 20.2975 4.38108 20.4004 4.64988 20.4004C4.91868 20.4004 5.18748 20.2975 5.39223 20.0928L11.9999 13.4851L18.6076 20.0928C18.8123 20.2975 19.0811 20.4004 19.3499 20.4004C19.6187 20.4004 19.8875 20.2975 20.0923 20.0928C20.5028 19.6822 20.5028 19.0186 20.0923 18.6081L13.4846 12.0004Z" fill="white"/>
</svg>
